<svg width="786.8199500000001" height="572.25773" xmlns="http://www.w3.org/2000/svg" data-name="Layer 1">

 <g>
  <title>Layer 1</title>
  <circle id="svg_1" fill="#f2f2f2" r="26.70075" cy="74.18162" cx="458.32136"/>
  <path id="svg_3" fill="#3f3d56" d="m608.42597,55.31996c-0.87006,-0.58 -1.75,-1.13 -2.62006,-1.69a380.24008,380.24008 0 0 0 -80.31,-38.93l-6.54,90.22l-41.46,0l0,-103.39c-2.61,-0.54 -5.24,-1.05 -7.87,-1.53l0,104.92l-49.27007,0a102.26992,102.26992 0 0 1 -102.26992,-102.26988l0,-0.0001c-2.64,0.57 -5.26,1.18 -7.88,1.83l0,100.44l-40.13,0l-6.23,-86.03a380.8581,380.8581 0 0 0 -81.94,43.53c-0.44,0.3 -0.88,0.61 -1.31,0.91c-2.21,1.55 -4.39,3.13 -6.56,4.73l0,344.19l118.27,0l-2.09,-28.95l-11.5,-158.95l231.59,0l-11.5,158.95l-2.09,28.95l116.96,0l0,-353.45q-2.61004,-1.76996 -5.24995,-3.48002zm-298.22,142.78l-33.39,0l-6.17,-85.3l39.56,0l0,85.3zm159.42,0l-56.08,0l0,-1.69a6.17975,6.17975 0 0 0 -6.19,-6.18l-24.38,0a6.17757,6.17757 0 0 0 -6.18,6.18l0,1.69l-58.71,0l0,-85.3l151.54,0l0,85.3zm7.87,0l0,-85.3l40.89,0l-6.17,85.3l-34.72,0z"/>
  <path id="svg_4" fill="#3f3d56" d="m-0.00003,434.29081a289.0029,289.0029 0 0 0 28.12,28.95l730.58,1a289.0029,289.0029 0 0 0 28.12,-28.95l-786.82,-1z"/>
  <path id="svg_5" fill="#3f3d56" d="m495.4299,341.59133l0,85.704a4.12233,4.12233 0 0 0 4.11906,4.11907l127.00449,0a4.12232,4.12232 0 0 0 4.11907,-4.11907l0,-85.704a4.12433,4.12433 0 0 0 -4.11907,-4.11452l-127.00448,0a4.12434,4.12434 0 0 0 -4.11907,4.11452z"/>
  <path id="svg_6" fill="#6c63ff" d="m498.40936,342.65769l0,83.58039a2.20523,2.20523 0 0 0 2.20141,2.20141l124.88546,0a2.20522,2.20522 0 0 0 2.20141,-2.20141l0,-83.58039a2.20621,2.20621 0 0 0 -2.20141,-2.206l-124.88546,0a2.20623,2.20623 0 0 0 -2.20141,2.206z"/>
  <path id="svg_7" fill="#2f2e41" d="m492.77373,444.00988a2.46985,2.46985 0 0 0 1.94346,0.92984l135.99195,0a2.5024,2.5024 0 0 0 2.44606,-3.0157l-2.111,-10.02722a2.50694,2.50694 0 0 0 -1.55811,-1.81784a2.42467,2.42467 0 0 0 -0.888,-0.1675l-131.77827,0a2.42446,2.42446 0 0 0 -0.888,0.1675a2.50671,2.50671 0 0 0 -1.55811,1.81784l-2.111,10.02722a2.5005,2.5005 0 0 0 0.51102,2.08586z"/>
  <rect id="svg_8" transform="rotate(-180 1457.67 1029.82)" fill="#3f3d56" rx="0.48819" height="2.51309" width="4.18849" y="1625.40728" x="2287.69981"/>
  <rect id="svg_9" transform="rotate(-180 1440.91 1029.82)" fill="#3f3d56" rx="0.48819" height="2.51309" width="4.18849" y="1625.40728" x="2262.56892"/>
  <rect id="svg_10" transform="rotate(-180 1424.16 1029.82)" fill="#3f3d56" rx="0.48819" height="2.51309" width="4.18849" y="1625.40728" x="2237.4379"/>
  <rect id="svg_11" transform="rotate(-180 1407.4 1029.82)" fill="#3f3d56" rx="0.48819" height="2.51309" width="4.18849" y="1625.40728" x="2212.30701"/>
  <rect id="svg_12" transform="rotate(-180 1390.65 1029.82)" fill="#3f3d56" rx="0.48819" height="2.51309" width="4.18849" y="1625.40728" x="2187.17601"/>
  <rect id="svg_13" transform="rotate(-180 1373.9 1029.82)" fill="#3f3d56" rx="0.48819" height="2.51309" width="4.18849" y="1625.40728" x="2162.04512"/>
  <rect id="svg_14" transform="rotate(-180 1357.14 1029.82)" fill="#3f3d56" rx="0.48819" height="2.51309" width="4.18849" y="1625.40728" x="2136.91411"/>
  <rect id="svg_15" transform="rotate(-180 1340.39 1029.82)" fill="#3f3d56" rx="0.48819" height="2.51309" width="4.18849" y="1625.40728" x="2111.78322"/>
  <rect id="svg_16" transform="rotate(-180 1323.63 1029.82)" fill="#3f3d56" rx="0.48819" height="2.51309" width="4.18849" y="1625.40728" x="2086.65221"/>
  <rect id="svg_17" transform="rotate(-180 1306.88 1029.82)" fill="#3f3d56" rx="0.48819" height="2.51309" width="4.18849" y="1625.40728" x="2061.52132"/>
  <rect id="svg_18" transform="rotate(-180 1290.13 1029.82)" fill="#3f3d56" rx="0.48819" height="2.51309" width="4.18849" y="1625.40728" x="2036.39031"/>
  <rect id="svg_19" transform="rotate(-180 1273.37 1029.82)" fill="#3f3d56" rx="0.48819" height="2.51309" width="4.18849" y="1625.40728" x="2011.25943"/>
  <rect id="svg_20" transform="rotate(-180 1256.62 1029.82)" fill="#3f3d56" rx="0.48819" height="2.51309" width="4.18849" y="1625.40728" x="1986.12854"/>
  <rect id="svg_21" transform="rotate(-180 1239.86 1029.82)" fill="#3f3d56" rx="0.48819" height="2.51309" width="4.18849" y="1625.40728" x="1960.99752"/>
  <rect id="svg_22" transform="rotate(-180 1223.11 1029.82)" fill="#3f3d56" rx="0.48819" height="2.51309" width="4.18849" y="1625.40728" x="1935.86664"/>
  <rect id="svg_23" transform="rotate(-180 1206.36 1029.82)" fill="#3f3d56" rx="0.48819" height="2.51309" width="4.18849" y="1625.40728" x="1910.73563"/>
  <rect id="svg_24" transform="rotate(-180 1457.86 1038.2)" fill="#3f3d56" rx="0.48819" height="2.51309" width="4.18849" y="1637.97272" x="2287.99678"/>
  <rect id="svg_25" transform="rotate(-180 1441.11 1038.2)" fill="#3f3d56" rx="0.48819" height="2.51309" width="4.18849" y="1637.97272" x="2262.8659"/>
  <rect id="svg_26" transform="rotate(-180 1424.36 1038.2)" fill="#3f3d56" rx="0.48819" height="2.51309" width="4.18849" y="1637.97272" x="2237.73489"/>
  <rect id="svg_27" transform="rotate(-180 1407.6 1038.2)" fill="#3f3d56" rx="0.48819" height="2.51309" width="4.18849" y="1637.97272" x="2212.604"/>
  <rect id="svg_28" transform="rotate(-180 1390.85 1038.2)" fill="#3f3d56" rx="0.48819" height="2.51309" width="4.18849" y="1637.97272" x="2187.47299"/>
  <rect id="svg_29" transform="rotate(-180 1374.09 1038.2)" fill="#3f3d56" rx="0.48819" height="2.51309" width="4.18849" y="1637.97272" x="2162.3421"/>
  <rect id="svg_30" transform="rotate(-180 1357.34 1038.2)" fill="#3f3d56" rx="0.48819" height="2.51309" width="4.18849" y="1637.97272" x="2137.21109"/>
  <rect id="svg_31" transform="rotate(-180 1340.59 1038.2)" fill="#3f3d56" rx="0.48819" height="2.51309" width="4.18849" y="1637.97272" x="2112.0802"/>
  <rect id="svg_32" transform="rotate(-180 1323.83 1038.2)" fill="#3f3d56" rx="0.48819" height="2.51309" width="4.18849" y="1637.97272" x="2086.9492"/>
  <rect id="svg_33" transform="rotate(-180 1307.08 1038.2)" fill="#3f3d56" rx="0.48819" height="2.51309" width="4.18849" y="1637.97272" x="2061.81831"/>
  <rect id="svg_34" transform="rotate(-180 1290.32 1038.2)" fill="#3f3d56" rx="0.48819" height="2.51309" width="4.18849" y="1637.97272" x="2036.68729"/>
  <rect id="svg_35" transform="rotate(-180 1273.57 1038.2)" fill="#3f3d56" rx="0.48819" height="2.51309" width="4.18849" y="1637.97272" x="2011.5564"/>
  <rect id="svg_36" transform="rotate(-180 1256.82 1038.2)" fill="#3f3d56" rx="0.48819" height="2.51309" width="4.18849" y="1637.97272" x="1986.4254"/>
  <rect id="svg_37" transform="rotate(-180 1240.06 1038.2)" fill="#3f3d56" rx="0.48819" height="2.51309" width="4.18849" y="1637.97272" x="1961.29451"/>
  <rect id="svg_38" transform="rotate(-180 1223.31 1038.2)" fill="#3f3d56" rx="0.48819" height="2.51309" width="4.18849" y="1637.97272" x="1936.1635"/>
  <rect id="svg_39" transform="rotate(-180 1206.55 1038.2)" fill="#3f3d56" rx="0.48819" height="2.51309" width="4.18849" y="1637.97272" x="1911.03262"/>
  <rect id="svg_40" transform="rotate(-180 1348.13 1048.25)" fill="#3f3d56" rx="0.48819" height="2.51309" width="33.50793" y="1653.05128" x="2108.72943"/>
  <rect id="svg_41" fill="#fff" rx="1.56108" height="3.12216" width="5.96585" y="358.73707" x="515.63106"/>
  <rect id="svg_42" fill="#fff" rx="1.56108" height="3.12216" width="5.96585" y="358.73707" x="548.15407"/>
  <rect id="svg_43" fill="#fff" rx="1.56108" height="3.12216" width="5.96585" y="358.73707" x="557.36892"/>
  <rect id="svg_44" fill="#fff" rx="1.56108" height="3.12216" width="20.79613" y="358.4768" x="524.47742"/>
  <rect id="svg_45" fill="#fff" rx="1.56108" height="3.12216" width="20.79613" y="358.4768" x="567.84144"/>
  <rect id="svg_46" fill="#fff" rx="1.56108" height="3.12216" width="5.96585" y="365.78373" x="524.30386"/>
  <rect id="svg_47" fill="#fff" rx="1.56108" height="3.12216" width="5.96585" y="365.78373" x="556.82687"/>
  <rect id="svg_48" fill="#fff" rx="1.56108" height="3.12216" width="5.96585" y="365.78373" x="566.04172"/>
  <rect id="svg_49" fill="#fff" rx="1.56108" height="3.12216" width="20.79613" y="365.52345" x="533.15023"/>
  <rect id="svg_50" fill="#fff" rx="1.56108" height="3.12216" width="20.79613" y="365.52345" x="576.51424"/>
  <rect id="svg_51" fill="#fff" rx="1.56108" height="3.12216" width="5.96585" y="372.83038" x="532.97666"/>
  <rect id="svg_52" fill="#fff" rx="1.56108" height="3.12216" width="5.96585" y="372.83038" x="565.49967"/>
  <rect id="svg_53" fill="#fff" rx="1.56108" height="3.12216" width="5.96585" y="372.83038" x="574.71453"/>
  <rect id="svg_54" fill="#fff" rx="1.56108" height="3.12216" width="20.79613" y="372.57011" x="541.82303"/>
  <rect id="svg_55" fill="#fff" rx="1.56108" height="3.12216" width="20.79613" y="372.57011" x="585.18704"/>
  <rect id="svg_56" fill="#fff" rx="1.56108" height="3.12216" width="5.96585" y="379.87703" x="541.64947"/>
  <rect id="svg_57" fill="#fff" rx="1.56108" height="3.12216" width="5.96585" y="379.87703" x="574.17248"/>
  <rect id="svg_58" fill="#fff" rx="1.56108" height="3.12216" width="5.96585" y="379.87703" x="583.38733"/>
  <rect id="svg_59" fill="#fff" rx="1.56108" height="3.12216" width="20.79613" y="379.61676" x="550.49583"/>
  <rect id="svg_60" fill="#fff" rx="1.56108" height="3.12216" width="5.96585" y="407.89751" x="548.15407"/>
  <rect id="svg_61" fill="#fff" rx="1.56108" height="3.12216" width="5.96585" y="407.89751" x="557.36892"/>
  <rect id="svg_62" fill="#fff" rx="1.56108" height="3.12216" width="20.79613" y="408.15779" x="567.84144"/>
  <rect id="svg_63" fill="#fff" rx="1.56108" height="3.12216" width="5.96585" y="407.89751" x="515.63106"/>
  <rect id="svg_64" fill="#fff" rx="1.56108" height="3.12216" width="20.79613" y="408.15779" x="524.47742"/>
  <rect id="svg_65" fill="#fff" rx="1.56108" height="3.12216" width="5.96585" y="400.85086" x="524.30386"/>
  <rect id="svg_66" fill="#fff" rx="1.56108" height="3.12216" width="5.96585" y="400.85086" x="556.82687"/>
  <rect id="svg_67" fill="#fff" rx="1.56108" height="3.12216" width="5.96585" y="400.85086" x="566.04172"/>
  <rect id="svg_68" fill="#fff" rx="1.56108" height="3.12216" width="20.79613" y="401.11113" x="533.15023"/>
  <rect id="svg_69" fill="#fff" rx="1.56108" height="3.12216" width="5.96585" y="393.80421" x="532.97666"/>
  <rect id="svg_70" fill="#fff" rx="1.56108" height="3.12216" width="5.96585" y="393.80421" x="565.49967"/>
  <rect id="svg_71" fill="#fff" rx="1.56108" height="3.12216" width="5.96585" y="393.80421" x="574.71453"/>
  <rect id="svg_72" fill="#fff" rx="1.56108" height="3.12216" width="20.79613" y="394.06448" x="541.82303"/>
  <rect id="svg_73" fill="#fff" rx="1.56108" height="3.12216" width="5.96585" y="386.75755" x="541.64947"/>
  <rect id="svg_74" fill="#fff" rx="1.56108" height="3.12216" width="5.96585" y="386.75755" x="574.17248"/>
  <rect id="svg_75" fill="#fff" rx="1.56108" height="3.12216" width="5.96585" y="386.75755" x="583.38733"/>
  <rect id="svg_76" fill="#fff" rx="1.56108" height="3.12216" width="20.79613" y="387.01783" x="550.49583"/>
  <path id="svg_77" fill="#af8e7d" d="m504.91724,490.48161l-13.34954,-21.10162l41.902,-33.40283l17.29534,-19.16107a19.16138,19.16138 0 0 1 32.418,6.8279l0,0a19.16136,19.16136 0 0 1 -11.57015,23.991l-27.3488,10.07535l-39.34685,32.77127z"/>
  <path id="svg_78" fill="#2f2e41" d="m191.68997,337.48081l0,102.56l71.85,0l0,-102.56a3.448,3.448 0 0 0 -2.43,-3.3a3.1749,3.1749 0 0 0 -1.03,-0.16l-64.92,0a3.46328,3.46328 0 0 0 -3.47,3.46zm28.04,35.24a7.67033,7.67033 0 0 1 15.34,0l0,11.9a7.6701,7.6701 0 0 1 -15.34,0l0,-11.9z"/>
  <path id="svg_79" fill="#3f3d56" d="m191.47003,436.76088l0,9.89a1.94622,1.94622 0 0 0 1.93,1.94l68.43,0a1.93972,1.93972 0 0 0 1.93,-1.94l0,-9.89l-72.29,0z"/>
  <path id="svg_80" fill="#3f3d56" d="m78.65997,182.96088l0,187.25992a9.00714,9.00714 0 0 0 9,9l277.5,0a9.0071,9.0071 0 0 0 9,-9l0,-187.25992a9.01147,9.01147 0 0 0 -9,-8.99l-277.5,0a9.01151,9.01151 0 0 0 -9,8.99z"/>
  <path id="svg_81" fill="#fff" d="m85.16997,185.29081l0,182.62a4.81833,4.81833 0 0 0 4.81,4.81l272.87,0a4.81829,4.81829 0 0 0 4.81,-4.81l0,-182.62a4.82047,4.82047 0 0 0 -4.81,-4.82l-272.87,0a4.82051,4.82051 0 0 0 -4.81,4.82z"/>
  <path id="svg_82" fill="#2f2e41" d="m135.80997,447.92081a2.9484,2.9484 0 0 0 2.32,1.11l162.34,0a2.98725,2.98725 0 0 0 2.92,-3.6l-2.52,-11.97a2.99264,2.99264 0 0 0 -1.86,-2.17a2.89454,2.89454 0 0 0 -1.06,-0.19995l-157.31,0a2.8943,2.8943 0 0 0 -1.06,0.19995a2.99239,2.99239 0 0 0 -1.86,2.17l-2.52,11.97a2.985,2.985 0 0 0 0.61,2.49z"/>
  <path id="svg_83" fill="#3f3d56" d="m353.99448,205.62754l-255.32336,0a1.0156,1.0156 0 0 1 0,-2.0307l255.32336,0a1.0156,1.0156 0 0 1 0,2.0307z"/>
  <ellipse id="svg_84" fill="#3f3d56" ry="6.08304" rx="5.95043" cy="192.32963" cx="116.05131"/>
  <ellipse id="svg_85" fill="#3f3d56" ry="6.08304" rx="5.95043" cy="192.32963" cx="136.60733"/>
  <ellipse id="svg_86" fill="#3f3d56" ry="6.08304" rx="5.95043" cy="192.32963" cx="157.16336"/>
  <path id="svg_87" fill="#3f3d56" d="m341.61634,187.75088l-14.6,0a1.1053,1.1053 0 0 0 0,2.21l14.6,0a1.10511,1.10511 0 0 0 0,-2.21z"/>
  <path id="svg_88" fill="#3f3d56" d="m341.61634,191.90088l-14.6,0a1.10527,1.10527 0 0 0 0,2.21l14.6,0a1.10508,1.10508 0 0 0 0,-2.21z"/>
  <path id="svg_89" fill="#3f3d56" d="m341.61634,196.05082l-14.6,0a1.1053,1.1053 0 0 0 0,2.21l14.6,0a1.10511,1.10511 0 0 0 0,-2.21z"/>
  <path id="svg_90" fill="#2f2e41" d="m693.59572,441.10126a6.41621,6.41621 0 0 0 6.1831,4.331l26.49183,-0.68178a6.3285,6.3285 0 0 0 5.98085,-4.657l3.74888,-40.08721a9.79409,9.79409 0 0 0 4.23793,0.87079a9.66133,9.66133 0 1 0 -0.4849,-19.31658a8.18393,8.18393 0 0 0 -1.73618,0.18056a6.54764,6.54764 0 0 0 -4.87405,-2.103l-40.75051,1.05229a5.85294,5.85294 0 0 0 -1.00519,0.1248a6.36455,6.36455 0 0 0 -4.87318,8.26464l7.08142,52.02149zm43.17345,-43.81684l2.66764,-9.55274a6.50649,6.50649 0 0 0 0.02036,-3.37458c0.12944,-0.00034 0.24363,-0.06169 0.37307,-0.062a6.91049,6.91049 0 0 1 0.32357,13.81714a6.50527,6.50527 0 0 1 -3.38464,-0.82782z"/>
  <path id="svg_91" fill="#3f3d56" d="m691.38748,380.81511c0.86818,4.96412 10.62909,8.45387 22.36585,7.84729c10.79271,-0.49726 19.61745,-4.287 21.23421,-8.7785a6.02511,6.02511 0 0 0 -1.84436,-0.24588l-40.75051,1.05229a5.85294,5.85294 0 0 0 -1.00519,0.1248z"/>
  <path id="svg_92" fill="#6c63ff" d="m715.90435,419.07303a0.49659,0.49659 0 0 0 0.15091,-0.06642l5.75315,-3.76566a0.49923,0.49923 0 0 0 0.00032,-0.83621l-5.97978,-3.91667a0.49972,0.49972 0 1 0 -0.54792,0.83585l5.34091,3.49818l-5.114,3.34794a0.49991,0.49991 0 0 0 0.39637,0.903l0.00004,-0.00001z"/>
  <path id="svg_93" fill="#6c63ff" d="m706.81759,419.49207a0.5,0.5 0 0 0 0.12608,-0.91842l-5.30306,-3.04034l5.1256,-3.80723a0.49963,0.49963 0 1 0 -0.596,-0.80208l-5.73862,4.26265a0.49951,0.49951 0 0 0 0.04918,0.83476l5.96525,3.41968a0.4997,0.4997 0 0 0 0.37157,0.05098z"/>
  <path id="svg_94" fill="#6c63ff" d="m715.33212,422.37304a0.48233,0.48233 0 0 0 0.137,-0.05785a0.49976,0.49976 0 0 0 0.16752,-0.68714l-8.15548,-13.40836a0.50026,0.50026 0 0 0 -0.85442,0.52058l8.15548,13.40835a0.50035,0.50035 0 0 0 0.5499,0.22442z"/>
  <rect id="svg_95" fill="#6c63ff" rx="3.26417" height="10.8457" width="50.71916" y="260.82713" x="209.38454"/>
  <rect id="svg_96" fill="#e6e6e6" rx="3.26417" height="10.8457" width="102.23622" y="282.51852" x="183.62601"/>
  <rect id="svg_97" fill="#e6e6e6" rx="3.26417" height="10.8457" width="102.23622" y="304.20991" x="183.62601"/>
  <path id="svg_98" fill="#3f3d56" d="m290.7112,376.84588l0.21675,0.68444l0.01142,0.02283l6.52515,19.838l7.50627,22.86094l14.1227,42.96133l0.13688,6.67346l0,0.02283l1.04949,53.6845l-2.90894,7.2781l3.274,11.93237s-1.50582,-18.037 -9.5824,-7.67884c-4.57448,5.8864 -9.92468,11.90961 -14.31668,17.55642q9.59964,3.88436 19.50716,7.0271c1.426,0.45633 2.86334,0.88983 4.30071,1.32333q0.46194,0.13692 0.924,0.27377a266.86342,266.86342 0 0 0 67.35086,10.82587c1.18637,0.03425 2.35,0.057 3.47932,0.07986c0.39932,0.01142 0.78714,0.02284 1.175,0.02284c1.27765,0.01142 2.54389,0.02277 3.82154,0.02277q3.86721,0 7.70018,-0.11405a266.85337,266.85337 0 0 0 56.09149,-7.58613c-0.12547,-7.58606 -0.46768,-16.44984 -0.9582,-25.91819c-0.22817,-4.64293 -5.3502,-9.67369 -5.65823,-14.53336c-0.21675,-3.65047 4.38057,-7.08419 4.141,-10.79169c-1.55143,-22.82675 -3.49075,-14.06417 -4.92813,-30.22882q-0.22245,-2.37852 -0.41066,-4.55165c-0.924,-10.381 -1.56284,-16.872 -1.56284,-16.872l6.13733,-38.68338l9.6395,-60.73442l-0.74153,-1.22063l-0.83274,-0.41066l-50.844,-25.16532l-2.76064,-7.07276a10.97881,10.97881 0 0 0 -10.14143,-6.94731l-33.4929,-0.13688a10.93117,10.93117 0 0 0 -8.90946,4.52888l-9.069,12.55978l-59.99297,38.46667z"/>
  <path id="svg_99" fill="#3f3d56" d="m326.8165,453.65367l-7.58613,16.23321l-5.179,11.08822l-8.90939,46.646l-4.46044,4.73414l-3.82157,-16.75936l-39.99772,8.88094c-1.31191,-7.28951 -0.3512,0.24662 -1.16117,-7.75009c0.22817,-0.22817 0.46768,-0.45634 0.70727,-0.68451c0.63882,-0.59322 1.175,-1.15218 1.1636,-1.68831c-0.45633,-27.58374 0.9126,-74.52633 12.34311,-102.96564a60.05328,60.05328 0 0 1 7.02709,-13.1074c0.22817,-0.308 0.44492,-0.61606 0.66167,-0.924c5.27034,-7.3808 8.60136,-14.64748 13.32415,-19.81511l0,-0.01142a0.53028,0.53028 0 0 0 0.07986,-0.07987a0.157,0.157 0 0 0 0.04561,-0.03425l32.44341,-17.20272l1.39177,39.10546l0.99247,28.10851l0.93541,26.2262z"/>
  <path id="svg_100" fill="#3f3d56" d="m443.80137,458.26437l9.476,20.275l3.30742,7.06091l8.90681,46.64162l4.44575,4.72264l3.83039,-16.75524l1.7998,-0.36918l32.4585,-6.72243l9.46058,30.04631a17.984,17.984 0 0 0 -3.26122,-22.50556c-0.64606,-0.58457 -1.18444,-1.15373 -1.16913,-1.69211c0.53847,-32.4431 -1.446,-91.68363 -19.36733,-116.06588c-5.69179,-7.73777 -9.1068,-15.44474 -14.07562,-20.82885c-0.0154,-0.0153 -0.0154,-0.0307 -0.03071,-0.0307l-12.09124,-19.79812l-0.73836,-1.21533l-0.83066,-0.41528l-22.12098,97.6522z"/>
  <circle fill="#af8e7d" r="44.55826" cy="267.20052" cx="386.3965" data-name="Ellipse 5" id="a657ec4b-47ce-4d2a-9c58-81a811696ca9"/>
  <path id="svg_101" fill="#2f2e41" d="m446.62224,236.07679a3.75933,3.75933 0 0 0 -2.69,-1.19l0.67,-1.86a3.52769,3.52769 0 0 0 -3.96,-4.7l-2.44,0.47l0.23,-1.63a3.53387,3.53387 0 0 0 -4.73,-3.82a3.76631,3.76631 0 0 1 -3.24,-0.23a3.84647,3.84647 0 0 1 -1.92,-2.61005l-0.85,-4.1l-0.09,-0.22c-4.14,-6.9 -12.1,-11.92 -21.84,-13.76c-8.67005,-1.65 -17.56,-0.81 -26.13,-0.02c-3.4,0.32 -7.24,0.68 -10.44,2.64c-2.72,1.68 -5.02,5.04 -4.55,8.43c-8.45,-2.59 -17.51,2.58 -22,9.1c-5.32,7.76 -6.19,17.48 -6.33,25.08c-0.38,17.98 3.33,32.69 11,43.73c0.56,0.8 0.7,2.47 1.81,3.03l-0.23,-0.37c1.24,0.62 2.5,1.62 2.03,2.69c-1.35,3.08 7.62,9.89 13.94,12.14c11.53,4.11 26.86,3.76 37.64,2.28l0.38,-2.55c3.89,-0.53 6.63,-1.54 7.4,-3.12c1.36005,-1.16 2.52,-2.2 3.53,-3.16l0.01,-0.01c0.02,-0.02 0.06,-0.05 0.08,-0.07c4.87,-4.67 6,-7.32995 6.51,-11.37994c0.49,-3.97 -0.38,-8 -1.27,-11.63c18.74,2.9 -7.38,-19.96 10.08,-24.38a5.434,5.434 0 0 1 0.61,-0.15c0.51,-0.12 1.02,-0.24 1.51,-0.38a26.44846,26.44846 0 0 0 6.72,-2.87c4.88,-2.97 6.49,-6.91 9.01,-11.35a3.42652,3.42652 0 0 0 -0.45,-4.03001z"/>
  <path id="svg_102" fill="#2f2e41" d="m543.99224,461.43678c-0.01,1.75 -0.03,4.2 -0.11,7.23q-0.015,0.63 -0.03,1.29c-0.13,5.57 -0.26,10.24 -0.47,15.43c-0.01,0.36 -0.02,0.71 -0.04,1.07c-0.28,7.24 -0.72,15.67 -1.48,29.02c-1.41,24.66 -3.87,3.39 -6.34,12.04c-0.12,0.43 -0.25,0.94 -0.37,1.54a27.91582,27.91582 0 0 1 -1.88,6.33c-1.31,0.78 -2.66,1.53 -3.99,2.28c-3.79,2.11 -7.63995,4.13995 -11.51995,6.07c-2.18006,1.08 -4.37,2.14 -6.57,3.16c-0.35,0.16 -0.69,0.32 -1.03,0.47a270.88715,270.88715 0 0 1 -34.75,13.26c-2.32,0.7 -4.63,1.38 -6.97,2.01c-2.44,0.68 -4.88,1.32 -7.35,1.92a266.8933,266.8933 0 0 1 -56.09,7.59c-2.55,0.08 -5.12,0.11 -7.7,0.11c-1.28,0 -2.54,-0.01 -3.82,-0.02c-0.39,0 -0.78,-0.01 -1.17,-0.02c-1.13,-0.03 -2.3,-0.05 -3.48,-0.08a266.66307,266.66307 0 0 1 -67.35,-10.83l-0.93,-0.27c-1.44,-0.44 -2.87,-0.87 -4.3,-1.33q-9.90006,-3.135 -19.51,-7.02q-7.335,-2.955 -14.5,-6.34a0.33861,0.33861 0 0 1 -0.12,-0.06c-1,-0.46 -2.01,-0.94 -3.01,-1.43c-0.13,-0.07 -0.27,-0.14 -0.41,-0.21q-5.59506,-2.73 -11.07,-5.72c-3.07,-7.05005 -7.39,-8.4 -10.07,-14.6a25.87356,25.87356 0 0 1 -1.68,-5.74c0,-0.02 -0.01,-0.04 -0.01,-0.07c0.28,3.72 -1.19,-6.6 -0.01,-0.04c-0.01,-0.12 -0.02,-0.25 -0.03,-0.4c-0.03,-0.36 -0.06994,-0.8 -0.12994,-1.35c-3.43,-33.49 -3.21,-71.79 -4.7,-103.35q-0.15006,-3.06 -0.31,-5.86c-0.03,-0.62 -0.07,-1.23 -0.11005,-1.83c0.07,-0.18 0.15,-0.37 0.24,-0.55a1.002,1.002 0 0 1 0.07,-0.15a1.62294,1.62294 0 0 1 0.1,-0.18c0.02,-0.03 0.05,-0.07 0.07,-0.1a0.91693,0.91693 0 0 1 0.05,-0.1c0.09,-0.14 0.19,-0.29 0.3,-0.43c0.05,-0.06 0.09,-0.11005 0.14,-0.16a0.80824,0.80824 0 0 1 0.12,-0.14a0.637,0.637 0 0 1 0.11,-0.13c0.04,-0.04 0.08,-0.09 0.13,-0.13995a0.30159,0.30159 0 0 1 0.08,-0.08a2.03313,2.03313 0 0 1 0.26,-0.25a9.62387,9.62387 0 0 1 1.14,-0.9c0.13995,-0.09 0.29,-0.18 0.43,-0.28a19.13528,19.13528 0 0 1 3.17,-1.52c0.38,-0.14 0.76,-0.27 1.17,-0.41c0.15,-0.04 0.29,-0.09 0.44,-0.14c0.22,-0.07 0.44,-0.14 0.67,-0.19c1.14,-0.34 2.37,-0.63 3.7,-0.9c0.16,-0.03 0.33,-0.06 0.5,-0.1c0.24,-0.05 0.49,-0.09 0.74,-0.13c0.34,-0.06 0.69,-0.12 1.04,-0.18c2.97,-0.47 6.34,-0.82 10.06,-1.05q0.525,-0.03 1.05,-0.06c0.41,-0.02 0.82,-0.04 1.24,-0.06c0.35,-0.02 0.71,-0.03 1.07,-0.04c0.35,-0.02 0.71,-0.03 1.08,-0.04c1.01,-0.03 2.05,-0.06 3.11,-0.08c3.02,-0.06 6.2,-0.04 9.54,0.03c1.55,0.04 3.13,0.08 4.75,0.15c0.11005,0 0.21,0.01 0.31,0.01c1.41,0.05 2.83,0.11 4.29,0.19c1.02,0.05 2.05,0.1 3.07995,0.16c0.97,0.06 1.95,0.12 2.94,0.19c0.77,0.04 1.54,0.1 2.32,0.15c0.66,0.05 1.32,0.1 1.98,0.14l0.9,0.06c0.49,0.04 0.98,0.07 1.48,0.12c1.1,0.09 2.2,0.18 3.32,0.27c1.11,0.1 2.24,0.2 3.37,0.3s2.27,0.21 3.41,0.32c0.12,0.01 0.23,0.02 0.34,0.03c1.04,0.11005 2.08,0.21 3.13,0.32c0.24,0.02 0.49,0.04 0.73,0.07c1.0011,0.10058 2.02173,0.21832 3.032,0.32568c0.31006,0.03345 0.61847,0.06586 0.92944,0.09985c0.79139,0.08618 1.57154,0.16089 2.36847,0.25446c1.05,0.12 2.12006,0.23 3.16,0.37c0.81,0.09 1.62,0.18 2.43,0.28c1.27,0.15 2.56,0.31 3.85,0.48c0.49,0.06 0.98,0.12 1.47,0.19c3.68,0.46 7.4,0.97 11.18,1.5c5.73,0.81 11.55,1.69 17.41,2.64q8.80509,1.425 17.71,3.01c1.5,0.27 3,0.54 4.51,0.82q1.02,0.19491 2.04,0.38995c1.16,0.21 2.32,0.43 3.48,0.65c1.16,0.22 2.32,0.44 3.48,0.67c1.38,0.27 2.77,0.54 4.15,0.81c9.09,1.8 18.12994,3.72 26.95,5.73c1.45,0.32995 2.9,0.67 4.34,1q4.32,1.005 8.56,2.04c0.78,0.18 1.55,0.37 2.32,0.56c1.92,0.48 3.84,0.96 5.73,1.45l0.33,0.09c1.39,0.34 2.75,0.69 4.11,1.05q4.815,1.26 9.47,2.55q3.09,0.855 6.11,1.73c3.01,0.87 5.96,1.75 8.83,2.64c0.71,0.22 1.42,0.44 2.12,0.65c2.1,0.65 4.17,1.31 6.18,1.97c1.6,0.52 3.16,1.05 4.7,1.58q2.31,0.795 4.53,1.59c0.95,0.34 1.89,0.7 2.83,1.04c1.35,0.5 2.68,1 3.98,1.5c0.4,0.15 0.79,0.31 1.18,0.46c0.25,0.11 0.49,0.2 0.73,0.3c0.47,0.19 0.95,0.37 1.41,0.56c0.47,0.18 0.93,0.37 1.39,0.57c0.45,0.18 0.91,0.37 1.35,0.56c0.45,0.18 0.89,0.37 1.33,0.57c0.37,0.15 0.73,0.31 1.08,0.47c0.71,0.31 1.42,0.62 2.11,0.94c0.34,0.16 0.68,0.31 1.02,0.47l0.78,0.36c0.11,0.06 0.22,0.11 0.33,0.16c0.25,0.12 0.51,0.25 0.76,0.37c0.57995,0.27 1.15,0.56 1.71,0.83c0.75,0.38 1.48,0.76 2.18,1.13c0.71,0.37994 1.4,0.76 2.06,1.12994c0.11,0.06 0.21,0.12006 0.32,0.18006c0.15,0.07995 0.3,0.17 0.45,0.25c0.51,0.29 1,0.59 1.49,0.87994c0.96,0.59 1.87,1.17 2.72,1.75c0.19,0.13 0.37,0.26 0.56,0.38c0.63,0.45 1.23,0.89 1.79,1.34c0,0.01 0,0.01 0.01,0.01c0.19,0.14 0.37,0.29 0.55,0.43c0.15,0.14 0.31,0.26 0.46,0.4c0.52,0.45 1,0.87994 1.44,1.32a5.667,5.667 0 0 1 0.42,0.43a1.20839,1.20839 0 0 1 0.16,0.16c0.2,0.2 0.38,0.4 0.55,0.6a0.55257,0.55257 0 0 1 0.07,0.09c0.24,0.28 0.46,0.56 0.67,0.84c0.1,0.14 0.21,0.28 0.3,0.42c0.12,0.17 0.24,0.35 0.34,0.52c0.09,0.14 0.17,0.29 0.25,0.43006a7.2566,7.2566 0 0 1 0.54,1.12994a5.2413,5.2413 0 0 1 0.27,0.82a5.84442,5.84442 0 0 1 0.17008,0.81007z"/>
  <path id="svg_103" opacity="0.2" d="m543.99224,461.43678c-0.01,1.75 -0.03,4.2 -0.11,7.23c-0.01,0.42 -0.03,0.85 -0.04,1.29c-0.1,4.25 -0.25,9.5 -0.46,15.43c-0.01,0.36 -0.02,0.71 -0.04,1.07c-0.28,7.24 -0.72,15.67 -1.48,29.02c-1.41,24.66 -3.87,3.39 -6.34,12.04c-6.86,-4.22 -14.38,-8.64 -22.42,-13.18q-2.175,-1.23 -4.39,-2.47c-16.08,-8.97 -34.04,-18.37006 -52.79,-27.68c-0.74,-0.37 -1.49,-0.74 -2.23,-1.1c-42.95,-21.23 -89.83,-41.88 -127.81,-55.66c-7.33,-2.66 -14.33,-5.06 -20.91,-7.17005c-13.86,-4.43 -25.84,-7.53 -35.06,-8.87c-9.6,-1.4 -16.23,-0.9 -18.91,1.99q-0.15006,-3.06 -0.31,-5.86q-0.06006,-0.93 -0.12,-1.83c0.06171,-0.16462 0.14191,-0.32172 0.21955,-0.48017c0.01111,-0.02313 0.019,-0.047 0.03045,-0.06982a1.002,1.002 0 0 1 0.07,-0.15a1.62294,1.62294 0 0 1 0.1,-0.18a1.05985,1.05985 0 0 1 0.12,-0.2c0.09,-0.14 0.19,-0.29 0.3,-0.43a3.48261,3.48261 0 0 1 0.26,-0.30005a0.637,0.637 0 0 1 0.11,-0.13c0.04,-0.04 0.08,-0.09 0.13,-0.13995a0.30159,0.30159 0 0 1 0.08,-0.08a2.03313,2.03313 0 0 1 0.26,-0.25a9.62387,9.62387 0 0 1 1.14,-0.9c0.13995,-0.09 0.29,-0.18 0.43,-0.28a19.13528,19.13528 0 0 1 3.17,-1.52c0.38,-0.14 0.76,-0.27 1.17,-0.41c0.15,-0.04 0.29,-0.09 0.44,-0.14c0.22,-0.07 0.44,-0.14 0.67,-0.19c1.14,-0.34 2.37,-0.63 3.7,-0.9c0.4,-0.08 0.82,-0.16 1.24,-0.23c0.34,-0.06 0.69,-0.12 1.04,-0.18c2.97,-0.47 6.34,-0.82 10.06,-1.05q0.525,-0.03 1.05,-0.06c0.41,-0.02 0.82,-0.04 1.24,-0.06c0.35,-0.02 0.71,-0.03 1.07,-0.04c0.35,-0.02 0.71,-0.03 1.08,-0.04c1.01,-0.03 2.05,-0.06 3.11,-0.08c3.02,-0.05 6.2,-0.03 9.54,0.04c1.55,0.03 3.13,0.08 4.75,0.15c0.1,0 0.21,0.01 0.31,0.01c1.41,0.04 2.84,0.11 4.29,0.18c1.02,0.05 2.05,0.1 3.07995,0.16c0.97,0.06 1.95,0.12 2.94,0.19c0.77,0.04 1.54,0.1 2.32,0.15c0.66,0.05 1.32,0.1 1.98,0.14c0.79,0.06 1.58,0.12 2.38,0.18c1.1,0.09 2.2,0.18 3.32,0.27c1.11,0.1 2.24,0.2 3.37,0.3s2.27,0.21 3.41,0.32c0.12,0.01 0.23,0.02 0.34,0.03c1.04,0.11005 2.08,0.21 3.13,0.32q8.73,0.885 17.97,2.07q5.52,0.705 11.18,1.51c5.73,0.81 11.55,1.69 17.41,2.63q8.80509,1.425 17.71,3.01c1.5,0.27 3,0.54 4.51,0.82q2.76,0.50994 5.52,1.04c1.16,0.22 2.32,0.44 3.48,0.67c1.38,0.27 2.77,0.54 4.15,0.81c9.09,1.8 18.12994,3.72 26.95,5.73c1.45,0.32995 2.9,0.67 4.34,1q4.32,1.005 8.56,2.04c0.78,0.19 1.55,0.38 2.32,0.57q2.895,0.72 5.73,1.44l0,0.01c0.11,0.02 0.22,0.05 0.33,0.08c1.38,0.35 2.75,0.7 4.11,1.06q4.815,1.26 9.47,2.54c2.06,0.57995 4.1,1.15 6.11,1.73c3.01,0.88 5.96,1.76 8.83,2.64c0.71,0.22 1.42,0.44 2.12,0.65q3.15,0.99 6.18,1.97c1.6,0.52 3.16,1.05 4.7,1.58q2.31,0.795 4.53,1.59c0.96,0.34 1.9,0.69 2.83,1.03c1.36,0.5 2.68,1 3.98,1.51c0.4,0.15 0.79,0.31 1.18,0.46c0.73,0.28 1.44,0.57 2.14,0.86c0.47,0.18 0.93,0.37 1.39,0.57c0.45,0.18 0.91,0.37 1.35,0.56c0.45,0.18 0.89,0.37 1.33,0.57c0.37,0.15 0.73,0.31 1.08,0.47c0.71,0.31 1.42,0.62 2.11,0.94c0.34,0.16 0.68,0.31 1.02,0.47l0.78,0.36c0.11,0.06 0.22,0.11 0.33,0.16c0.85,0.4 1.67,0.8 2.47,1.2c0.75,0.38 1.48,0.76 2.18,1.13c0.83,0.43994 1.62,0.87 2.38,1.31c0.15,0.07995 0.3,0.17 0.45,0.25c0.51,0.29 1,0.59 1.49,0.87994c0.96,0.59 1.87,1.17 2.72,1.75c0.84,0.58 1.62,1.15 2.35,1.72c0,0.01 0,0.01 0.01,0.01c0.35,0.28 0.69,0.56 1.01,0.83c0.52,0.45 1,0.87994 1.44,1.32a5.667,5.667 0 0 1 0.42,0.43a1.20839,1.20839 0 0 1 0.16,0.16c0.21,0.23 0.42,0.46 0.62006,0.69c0.24,0.28 0.46,0.56 0.67,0.84c0.1,0.14 0.21,0.28 0.3,0.42c0.12,0.17 0.24,0.35 0.34,0.52c0.09,0.14 0.17,0.29 0.25,0.43006a7.2566,7.2566 0 0 1 0.54,1.12994a6.05312,6.05312 0 0 1 0.27,0.82a5.84442,5.84442 0 0 1 0.16999,0.8101z"/>
 </g>
</svg>